/* XPM */
static char *c7de6de02ef44487ed6d0e56f2314424Cn7oqie6Y97YJz80[] = {
/* columns rows colors chars-per-pixel */
"32 32 11 1 ",
"  c black",
". c #4B241D",
"X c #593A35",
"o c #663931",
"O c #2E576E",
"+ c #6E4842",
"@ c #40687E",
"# c #A48734",
"$ c #C9A231",
"% c #E1B433",
"& c #8799A4",
/* pixels */
"&&&&&&&@&&&&&&&&&&&&&&&&@&&&&&&&",
"&&&&&&O@O&&&&&&&&&&&&&&&@&&&&&&&",
"&&&&&&                    &&&&&&",
"OO&&&  +oooooooooooooooo+  &&&&&",
"@@@@  XXXXXXXXXXXXXXXXXXXX  @@@@",
"&&&  +oooooooooooooooooooo+  &&&",
"&&  XXXXXXXXXXXXXXXXXXXXXXXX  &&",
"&  +ooooooooooo%%ooooooooooo+  &",
"& XXXXXXXXXXXX%%%%XXXXXXXXXXXX &",
"O %oooooooooo%%%%%%oooooooooo% @",
"@ %%.........%%%%%%.........%% O",
"&                              &",
"&&                            &&",
"&&&                          &&&",
"&&&&                        &&&&",
"@@@@                        @@@@",
"&&&&                        &&&&",
"&&&   .................$$$   &&&",
"&&  ..$$$$.$$$.$$..$$$.$#$..  &&",
"&  $$$$##$$$#$$#$$$$#$$$$$$$$  &",
"& #$##$$$$$###$#$$$###$##$##$# &",
"@ ...........%%%%%%........... &",
"& ooooooooooo%%  %%ooooooooooo @",
"& XXXXXXXXXXX%% %%%XXXXXXXXXXX &",
"& ooooooooooo%%%%%%ooooooooooo &",
"& XXXXXXXXXXXXXXXXXXXXXXXXXXXX &",
"& %oooooooooooooooooooooooooo% &",
"@ %XXXXXXXXXXXXXXXXXXXXXXXXXX% @",
"& %%oooooooooooooooooooooooo%% &",
"&                              &",
"&&&&&&&&&O@&&&&&&&&&&&&&&@&&&&&&",
"&&&&&&&&&&@&&&&&&&&&&&&&&@&&&&&&"
};
