/* XPM */
static char *_3b60a18eb704839c631cb422c8e4795hikDNYLSv3HFkgqH[] = {
/* columns rows colors chars-per-pixel */
"32 32 5 1 ",
"  c black",
". c #153B51",
"X c #2E576E",
"o c #40687E",
"O c #8799A4",
/* pixels */
"OOOOOOOoOOOOOOOOOOOOOOOOoOOOOOOO",
"OOOOOOXoXOOOOOOOOOOOOOOOoOOOOOOO",
"OOOOOOXoXO            OXoOOOOOOO",
"XXOOOO.oo              .o.XOOOOO",
"oooooooo                oooooooo",
"OOOOOOO                  OOOOOOO",
"OOOOOO                    OOOOOO",
"OOOOO                      OOOOO",
"OOOO                        OOOO",
"XOOO                        OXoo",
"oooo                        ooXX",
"OOOO                        OOOO",
"OOOO                        OOOO",
"OOOO                        OOOO",
"OOOO                        OOOO",
"oooo                        oooo",
"OOOO                        OOOO",
"OOOO                        OOOO",
"OOOO                        OOOO",
"OOOO                        OOOO",
"OOOX                        OOOO",
"oooo                        OOOO",
"OOOO                        oooo",
"OOOO                        OOOO",
"OOOO                        OOOO",
"OOOO                        OOOO",
"OOOO                        OOOO",
"oooo                        oooo",
"OOOO                        OOOO",
"OOOO                        OOOO",
"OOOO                        OOOO",
"OOOO                        OOOO"
};
