/* XPM */
static char *f09e8ae19cef4013d43a87a279c6782c92tzxk23XDS1nSUs[] = {
/* columns rows colors chars-per-pixel */
"32 32 14 1 ",
"  c black",
". c #4B1D15",
"X c #761B1B",
"o c #4B2620",
"O c #663931",
"+ c #153B51",
"@ c #2E576E",
"# c #40687E",
"$ c #AC3232",
"% c #AE7E4D",
"& c #D9A066",
"* c #8799A4",
"= c #EAB787",
"- c white",
/* pixels */
"*******#****************#*******",
"******@#@***************#*******",
"******@#@**************@#*******",
"@@****+##**************+#+@*****",
"#############        ###########",
"***********  ..OOOOOO  *********",
"********** ...OOO.OOOOO ********",
"********* .OOOOOO...OOO  *******",
"********* OO.OOOOO...OO  *******",
"@******** OO....... .... ****@##",
"######## .O..      &     #####@@",
"*******# .O.. - &====- & *#*****",
"*******# .O.. - =====- & *#*****",
"*******@ .... - =====- & *#*****",
"*******@ .... =========& *#*****",
"######## .... =========& #######",
"****#@*** .. &========&  *******",
"****##****  &===%%%==&  ********",
"*****#****** &&&&&&&&  #********",
"****@#****  $         @#********",
"***@@#*** $X$$$$$$$XX   ********",
"######### $XX$$$$$$$$ $ @*******",
"********* $ X$$$$$$$$ $ ########",
"********* & $$$$$$$$$ & ********",
"********* = o$$$$$$$o = ********",
"********@   .........   ********",
"*******@#+ ...   .... **********",
"##########    ###    ###########",
"********@+#*************+#******",
"*********+#*************@#******",
"*********@#**************#******",
"**********#**************#******"
};
