/* XPM */
static char *_a24b9d2b2ca45a4a1fb55e087701500KKU5nBRcFC4B620l[] = {
/* columns rows colors chars-per-pixel */
"32 32 4 1 ",
"  c #153B51",
". c #2E576E",
"X c #40687E",
"o c #8799A4",
/* pixels */
"oooooooXooooooooooooooooXooooooo",
"oooooo.X.oooooooooooooooXooooooo",
"oooooo.X.oooooooooooooo.Xooooooo",
"..oooo XXoooooooooooooo X .ooooo",
"XXXXXXXXXXXXXX .XXXXXXXXXXXXXXXX",
"oooooooooooooXoooooooooooooooooo",
"oooooooooooooXoooooooooooooooooo",
"oooooooooooooXoooooooooooooooooo",
"oooooooooooo.Xoooooooooooooooooo",
".oooooooooo..Xooooooooooooooo.XX",
"XXXXXXXXXXXXXXXXXXXXXXXXXXXXXX..",
"oooooooX oooooooooo..oooooXooooo",
"oooooooXXooooooooooo.oooooXooooo",
"ooooooo.XoooooooooooooooooXooooo",
"ooooooo.X.ooooooooooooooooXooooo",
"XXXXXXXXXXXXXXXXXXXXXXXXXXXXXXXX",
"ooooX.ooooooooooooooo X.oooooooo",
"ooooXXooooooooooooooo.X.oooooooo",
"oooooXooooooooooooooo.XXoooooooo",
"oooo.Xoooooooooooooooo.Xoooooooo",
"ooo..Xoooooooooooooooo.Xoooooooo",
"XXXXXXXXXXXXXXXXXXXXXXXX.ooooooo",
"ooooooooooooooXoooooooXXXXXXXXXX",
"ooooooooooooooX.oooooooooooooooo",
"ooooooooo.ooooXXoooooooooooooooo",
"oooooooo. oooo.Xoooooooooooooooo",
"ooooooo.X ooo  Xoooooooooooooooo",
"XXXXXXXXXXXXXXXXXXXXXXXXXXXXXXXX",
"oooooooo. Xooooooooooooo Xoooooo",
"ooooooooo Xooooooooooooo.Xoooooo",
"ooooooooo.XooooooooooooooXoooooo",
"ooooooooooXooooooooooooooXoooooo"
};
