/* XPM */
static char *c3320918fe604d3e849255f6670b5f183iL7UXyJkwXDF6eW[] = {
/* columns rows colors chars-per-pixel */
"32 32 4 1 ",
"  c black",
". c #3A5B6E",
"X c #678EA4",
"o c #9EB1BC",
/* pixels */
"                                ",
" .oooooooooooooooooooooooooooo. ",
" oXXXXXXXXXXXXXXXXXXXXXXXXXXXXo ",
" oXXXXXXXXXXXXXXXXXXXXXXXXXXXXo ",
" oXXXXXXXXXXXXXXXXXXXXXXXXXXXXo ",
" oXXXXXXXXXXXXXXXXXXXXXXXXXXXXo ",
" oXXXXXXXXXXXXXXXXXXXXXXXXXXXXo ",
" oXXXXXXXXXXXXXXXXXXXXXXXXXXXXo ",
" oXXXXXXXXXXXXXXXXXXXXXXXXXXXXo ",
" oXXXXXXXXXXXXXXXXXXXXXXXXXXXXo ",
" oXXXXXXXXXXXXXXXXXXXXXXXXXXXXo ",
" oXXXXXXXXXXXXXXXXXXXXXXXXXXXXo ",
" oXXXXXXXXXXXXXXXXXXXXXXXXXXXXo ",
" oXXXXXXXXXXXXXXXXXXXXXXXXXXXXo ",
" oXXXXXXXXXXXXXXXXXXXXXXXXXXXXo ",
" oXXXXXXXXXXXXXXXXXXXXXXXXXXXXo ",
" oXXXXXXXXXXXXXXXXXXXXXXXXXXXXo ",
" oXXXXXXXXXXXXXXXXXXXXXXXXXXXXo ",
" oXXXXXXXXXXXXXXXXXXXXXXXXXXXXo ",
" oXXXXXXXXXXXXXXXXXXXXXXXXXXXXo ",
" oXXXXXXXXXXXXXXXXXXXXXXXXXXXXo ",
" .oooooooooooooooooooooooooooo. ",
" .............................. ",
" .............................. ",
" .............................. ",
" .............................. ",
" .............................. ",
" .............................. ",
" .............................. ",
" .............................. ",
" .............................. ",
"                                "
};
